<svg xmlns="http://www.w3.org/2000/svg" xmlns:xlink="http://www.w3.org/1999/xlink" version="1.0" x="0" y="0" width="2400" height="1814.8185580384497" viewBox="139.4 101.8610595703125 61.2 46.27787322998047" preserveAspectRatio="xMidYMid meet" color-interpolation-filters="sRGB"><g><defs><linearGradient id="92" x1="0%" y1="0%" x2="100%" y2="0%"><stop offset="0%" stop-color="#fa71cd"></stop> <stop offset="100%" stop-color="#9b59b6"></stop></linearGradient><linearGradient id="93" x1="0%" y1="0%" x2="100%" y2="0%"><stop offset="0%" stop-color="#f9d423"></stop> <stop offset="100%" stop-color="#f83600"></stop></linearGradient><linearGradient id="94" x1="0%" y1="0%" x2="100%" y2="0%"><stop offset="0%" stop-color="#0064d2"></stop> <stop offset="100%" stop-color="#1cb0f6"></stop></linearGradient><linearGradient id="95" x1="0%" y1="0%" x2="100%" y2="0%"><stop offset="0%" stop-color="#f00978"></stop> <stop offset="100%" stop-color="#3f51b1"></stop></linearGradient><linearGradient id="96" x1="0%" y1="0%" x2="100%" y2="0%"><stop offset="0%" stop-color="#7873f5"></stop> <stop offset="100%" stop-color="#ec77ab"></stop></linearGradient><linearGradient id="97" x1="0%" y1="0%" x2="100%" y2="0%"><stop offset="0%" stop-color="#f9d423"></stop> <stop offset="100%" stop-color="#e14fad"></stop></linearGradient><linearGradient id="98" x1="0%" y1="0%" x2="100%" y2="0%"><stop offset="0%" stop-color="#009efd"></stop> <stop offset="100%" stop-color="#2af598"></stop></linearGradient><linearGradient id="99" x1="0%" y1="0%" x2="100%" y2="0%"><stop offset="0%" stop-color="#ffcc00"></stop> <stop offset="100%" stop-color="#00b140"></stop></linearGradient><linearGradient id="100" x1="0%" y1="0%" x2="100%" y2="0%"><stop offset="0%" stop-color="#d51007"></stop> <stop offset="100%" stop-color="#ff8177"></stop></linearGradient><linearGradient id="102" x1="0%" y1="0%" x2="100%" y2="0%"><stop offset="0%" stop-color="#a2b6df"></stop> <stop offset="100%" stop-color="#0c3483"></stop></linearGradient><linearGradient id="103" x1="0%" y1="0%" x2="100%" y2="0%"><stop offset="0%" stop-color="#7ac5d8"></stop> <stop offset="100%" stop-color="#eea2a2"></stop></linearGradient><linearGradient id="104" x1="0%" y1="0%" x2="100%" y2="0%"><stop offset="0%" stop-color="#00ecbc"></stop> <stop offset="100%" stop-color="#007adf"></stop></linearGradient><linearGradient id="105" x1="0%" y1="0%" x2="100%" y2="0%"><stop offset="0%" stop-color="#b88746"></stop> <stop offset="100%" stop-color="#fdf5a6"></stop></linearGradient></defs><g class="imagesvg isNoFont" transform="translate(140,102.46106338500977)"><g><rect fill="#062aaa" fill-opacity="0" stroke-width="2" x="0" y="0" width="60" height="45.07787202392132" class="image-rect"></rect> <svg filter="url(#colors3469740902)" x="0" y="0" width="60" height="45.07787202392132" filtersec="colorsf9899122888" class="image-svg-svg primary" style="overflow: visible;"><svg xmlns="http://www.w3.org/2000/svg" xmlns:xlink="http://www.w3.org/1999/xlink" version="1.1" x="0px" y="0px" viewBox="16.800003051757812 40.900001525878906 193.00001525878906 145" xml:space="preserve"><path d="M195.4,156.2l12.3-47.5l0.5-1.2l-37.9-47.4L110,41.5l-2-0.6l-5.6,20.3L51.2,85.7l-6.6,22.7l-27.8,27.8l23.4-9.9l5.2,59.6  l27.8-0.9l7.1-28.5l32.2-2.7l10.8,31.4l22.8,0.7l14.1-61.9l20.6-6.6l5.9,35l1.6,15.9l21.5-0.6L195.4,156.2z M167.6,62l-33,64.8  l-23.8-82.3L167.6,62z M108.9,47.4l22.7,80.6L95.4,96.6L108.9,47.4z M53.3,87.6l48.2-23l-8.7,31.6l-49.4,25.5L53.3,87.6z M40,123.4  l-11.7,5l14.2-14.2L40,123.4z M47.8,183.2l-4.6-52.6l24.3,46.9l2.6,4.9L47.8,183.2z M71.8,180l-2.8-5.4l-25.9-49.8l1.2-0.5L92,99.5  L71.8,180z M81.1,153.8l13.6-54.2l4.4,4.3l12.7,47.4L81.1,153.8z M114.7,152l-8.5-31.7l-3.6-13.5l30.3,26l0.4,1.7L124,179L114.7,152  z M125.9,182.6l8.7-41.8l9,42.3L125.9,182.6z M145.2,178.3l-8.3-42.1l-0.8-4.3l21.2-6.2L145.2,178.3z M136.4,128.9l33.3-65.3  l34.7,43.4L136.4,128.9z M183.5,117l21.2-7.3l-11.5,44.6l-3.9-2.9L183.5,117z M189.7,155.1l13,10.2l-11.9,0.3L189.7,155.1z"></path></svg></svg> <defs><filter id="colors3469740902"><feColorMatrix type="matrix" values="0 0 0 0 0.42578125  0 0 0 0 0.63671875  0 0 0 0 0.921875  0 0 0 1 0" class="icon-feColorMatrix "></feColorMatrix></filter> <filter id="colorsf9899122888"><feColorMatrix type="matrix" values="0 0 0 0 0.99609375  0 0 0 0 0.99609375  0 0 0 0 0.99609375  0 0 0 1 0" class="icon-fecolormatrix"></feColorMatrix></filter> <filter id="colorsb2357977153"><feColorMatrix type="matrix" values="0 0 0 0 0  0 0 0 0 0  0 0 0 0 0  0 0 0 1 0" class="icon-fecolormatrix"></feColorMatrix></filter></defs></g></g><defs v-gra="od"></defs></g></svg>